<svg xmlns="http://www.w3.org/2000/svg" xmlns:xlink="http://www.w3.org/1999/xlink" version="1.1" x="0px" y="0px" viewBox="0 0 100 100" enable-background="new 0 0 100 100" xml:space="preserve">
	<path fill="#fff" d="M85.634,41.36c1.019-5.892,1.065-10.937,1.066-11.836c0-0.091,0-0.14,0-0.142l-0.008-0.73l-0.729,0.038  c-0.021,0.001-3.438,0.181-8.022,1.025c-4.326,0.799-9.679,2.194-14.234,4.613c-1.232-5.423-4.372-10.818-7.285-14.96  c-3.08-4.371-5.893-7.333-5.908-7.35l-0.507-0.534l-0.508,0.534c-0.015,0.017-2.832,2.979-5.915,7.35  c-2.917,4.142-6.06,9.536-7.291,14.96c-4.555-2.419-9.907-3.814-14.233-4.613c-4.584-0.844-8.001-1.023-8.022-1.025l-0.729-0.038  l-0.008,0.73c0,0.002,0,0.052,0,0.145c0,0.906,0.047,5.952,1.066,11.841c1.027,5.889,2.993,12.633,7.005,16.965l0,0  c1.015,1.09,2.131,1.977,3.302,2.707c-4.386,4.543-7.326,9.499-7.343,9.525l-0.369,0.622l0.634,0.349  c0.019,0.01,2.578,1.417,6.238,2.829c3.664,1.409,8.421,2.832,12.899,2.836c1.489,0,2.949-0.159,4.327-0.539  c2.353-0.648,4.29-1.897,5.857-3.394c0.917-0.875,1.696-1.838,2.381-2.819V87.5c0,0.387,0.313,0.7,0.7,0.7s0.7-0.313,0.7-0.7V70.443  c0.685,0.983,1.466,1.947,2.384,2.824c1.567,1.497,3.503,2.746,5.857,3.394c1.378,0.379,2.838,0.538,4.327,0.539  c4.478-0.004,9.235-1.427,12.898-2.836c3.661-1.411,6.219-2.818,6.238-2.829l0.634-0.349l-0.369-0.622  c-0.017-0.026-2.957-4.981-7.34-9.525c1.169-0.73,2.286-1.617,3.299-2.707C82.641,53.999,84.606,47.25,85.634,41.36z"/>
</svg>
